<svg width="170" height="57" viewBox="0 0 170 57" fill="none" xmlns="http://www.w3.org/2000/svg">
<path d="M73.1504 12.7207C72.8004 12.7207 72.5104 12.8707 72.2704 13.1807C72.0304 13.4907 71.9104 13.8807 71.9104 14.3507C71.9104 14.8407 72.0404 15.2407 72.2904 15.5507C72.5404 15.8607 72.8604 16.0107 73.2204 16.0107C73.5704 16.0107 73.8604 15.8507 74.1004 15.5407C74.3404 15.2307 74.4604 14.8407 74.4604 14.3707C74.4604 13.8807 74.3304 13.4707 74.0804 13.1707C73.8404 12.8707 73.5304 12.7207 73.1504 12.7207Z" fill="#D7C2FF"/>
<path d="M80.0203 12.751C79.9203 12.751 79.7803 12.761 79.6003 12.781C79.6203 13.251 79.6403 13.751 79.6403 14.261C79.6403 14.831 79.6503 15.391 79.6803 15.941C79.8303 15.971 79.9903 15.991 80.1403 15.991C80.6503 15.991 81.0303 15.831 81.2703 15.521C81.5103 15.201 81.6403 14.821 81.6403 14.371C81.6403 13.921 81.5103 13.531 81.2403 13.221C80.9703 12.901 80.5603 12.751 80.0203 12.751Z" fill="#D7C2FF"/>
<path d="M91.6303 12.7012C91.4603 12.7012 91.2803 12.7212 91.1003 12.7512C91.1303 13.2012 91.1404 13.7012 91.1404 14.2712C91.2004 14.2712 91.2703 14.2812 91.3503 14.2812C92.2103 14.2812 92.6404 14.0112 92.6404 13.4612C92.6404 12.9612 92.3103 12.7012 91.6303 12.7012Z" fill="#D7C2FF"/>
<path d="M87.1202 12.6909C87.1202 12.7809 86.9102 13.4409 86.4902 14.6709H87.7802C87.3802 13.4509 87.1702 12.7909 87.1702 12.6909H87.1202Z" fill="#D7C2FF"/>
<path d="M53.6105 12.6909C53.6105 12.7809 53.4005 13.4409 52.9805 14.6709H54.2705C53.8705 13.4509 53.6605 12.7909 53.6605 12.6909H53.6105Z" fill="#676099"/>
<path d="M68.1305 12.7109C67.9105 12.7109 67.7105 12.7309 67.5405 12.7609C67.5705 13.1309 67.5805 13.6009 67.5805 14.1909C67.7105 14.1909 67.8205 14.2009 67.9105 14.2009C68.6605 14.2009 69.0405 13.9409 69.0405 13.4209C69.0305 12.9409 68.7305 12.7109 68.1305 12.7109Z" fill="#D7C2FF"/>
<path d="M63.0404 12.751C62.9404 12.751 62.8004 12.761 62.6204 12.781C62.6404 13.251 62.6604 13.751 62.6604 14.261C62.6604 14.831 62.6703 15.391 62.7003 15.941C62.8503 15.971 63.0104 15.991 63.1604 15.991C63.6704 15.991 64.0504 15.831 64.2904 15.521C64.5304 15.201 64.6604 14.821 64.6604 14.371C64.6604 13.921 64.5304 13.531 64.2604 13.221C63.9904 12.901 63.5904 12.751 63.0404 12.751Z" fill="#D7C2FF"/>
<path d="M102.47 12.7207C102.12 12.7207 101.83 12.8707 101.59 13.1807C101.35 13.4907 101.23 13.8807 101.23 14.3507C101.23 14.8407 101.36 15.2407 101.61 15.5507C101.86 15.8607 102.18 16.0107 102.54 16.0107C102.89 16.0107 103.18 15.8507 103.42 15.5407C103.66 15.2307 103.78 14.8407 103.78 14.3707C103.78 13.8807 103.65 13.4707 103.4 13.1707C103.16 12.8707 102.84 12.7207 102.47 12.7207Z" fill="#D7C2FF"/>
<path d="M95.8904 12.7012C95.7204 12.7012 95.5404 12.7212 95.3604 12.7512C95.3904 13.2012 95.4004 13.7012 95.4004 14.2712C95.4604 14.2712 95.5304 14.2812 95.6104 14.2812C96.4704 14.2812 96.9004 14.0112 96.9004 13.4612C96.9004 12.9612 96.5604 12.7012 95.8904 12.7012Z" fill="#D7C2FF"/>
<path d="M86.6402 29.3408C85.6502 29.3408 84.7902 29.7108 84.0602 30.4508C83.3302 31.1908 82.9702 32.1708 82.9702 33.4008C82.9702 34.6208 83.3302 35.6008 84.0602 36.3508C84.7902 37.0908 85.6502 37.4608 86.6402 37.4608C87.6302 37.4608 88.4902 37.0908 89.2202 36.3508C89.9502 35.6108 90.3102 34.6308 90.3102 33.4008C90.3102 32.1808 89.9502 31.2008 89.2202 30.4508C88.4902 29.7108 87.6302 29.3408 86.6402 29.3408Z" fill="#D7C2FF"/>
<path d="M74.3804 29.3408C73.3904 29.3408 72.5304 29.7108 71.8004 30.4508C71.0704 31.1908 70.7104 32.1708 70.7104 33.4008C70.7104 34.6208 71.0704 35.6008 71.8004 36.3508C72.5304 37.0908 73.3804 37.4608 74.3804 37.4608C75.3704 37.4608 76.2304 37.0908 76.9604 36.3508C77.6904 35.6108 78.0504 34.6308 78.0504 33.4008C78.0504 32.1808 77.6904 31.2008 76.9604 30.4508C76.2304 29.7108 75.3704 29.3408 74.3804 29.3408Z" fill="#D7C2FF"/>
<path d="M132.58 24.6211H129.05V30.3511H132.58C133.47 30.3511 134.18 30.0511 134.71 29.4611C135.25 28.8611 135.51 28.2111 135.51 27.4911C135.51 26.7711 135.24 26.1111 134.71 25.5211C134.18 24.9211 133.46 24.6211 132.58 24.6211Z" fill="#D7C2FF"/>
<path d="M145.37 34.1108C144.85 34.5508 144.59 35.0708 144.59 35.6708C144.59 36.2208 144.83 36.6608 145.3 36.9808C145.77 37.3008 146.32 37.4608 146.93 37.4608C147.8 37.4608 148.59 37.1308 149.3 36.4908C150.01 35.8408 150.37 35.0708 150.37 34.1908C149.77 33.7008 148.88 33.4608 147.69 33.4608C146.66 33.4508 145.89 33.6708 145.37 34.1108Z" fill="#D7C2FF"/>
<path d="M115.2 29.3408C114.42 29.3408 113.74 29.5808 113.17 30.0708C112.6 30.5608 112.2 31.2208 111.99 32.0408H118.5C118.45 31.4008 118.16 30.7908 117.62 30.2108C117.08 29.6308 116.27 29.3408 115.2 29.3408Z" fill="#D7C2FF"/>
<path d="M98.8102 29.3408C97.8302 29.3408 96.9902 29.7108 96.2902 30.4508C95.5902 31.1908 95.2402 32.1708 95.2402 33.4008C95.2402 34.6208 95.5902 35.6008 96.2902 36.3508C96.9902 37.0908 97.8302 37.4608 98.8102 37.4608C99.8002 37.4608 100.65 37.0908 101.34 36.3608C102.04 35.6308 102.38 34.6408 102.38 33.4008C102.38 32.1608 102.03 31.1808 101.34 30.4408C100.65 29.7108 99.8102 29.3408 98.8102 29.3408Z" fill="#D7C2FF"/>
<path d="M161.56 0.960938H7.58035C3.46035 0.960938 0.110352 4.30094 0.110352 8.43094V48.7509C0.110352 52.8709 3.45035 56.2209 7.58035 56.2209H161.56C165.68 56.2209 169.03 52.8809 169.03 48.7509V8.43094C169.02 4.31094 165.68 0.960938 161.56 0.960938ZM94.4404 12.0609H95.0604C95.1504 12.0609 95.3204 12.0609 95.5604 12.0509C95.8104 12.0409 96.0204 12.0409 96.2104 12.0409C96.6604 12.0409 97.0403 12.1409 97.3503 12.3509C97.6603 12.5509 97.8104 12.8609 97.8104 13.2809C97.8104 13.8509 97.6004 14.2609 97.1804 14.5309C96.7604 14.8009 96.2503 14.9309 95.6303 14.9309C95.5203 14.9309 95.4404 14.9309 95.3904 14.9209C95.3904 15.3609 95.4004 15.9509 95.4304 16.6809H94.4304C94.4604 16.0009 94.4803 15.1909 94.4803 14.2609C94.4903 13.4109 94.4704 12.6709 94.4404 12.0609ZM85.7504 14.4109C86.3004 12.9909 86.5804 12.2109 86.5804 12.0609H87.9203C87.9203 12.1909 88.1703 12.9709 88.6703 14.3709C89.1703 15.7809 89.4203 16.5509 89.4203 16.6709H88.2804C88.2804 16.5109 88.1704 16.0709 87.9604 15.3409H86.3203C86.1003 16.0609 85.9904 16.5009 85.9904 16.6709H84.9203C84.9203 16.5809 85.2004 15.8309 85.7504 14.4109ZM78.7003 12.0609H79.3204C79.4204 12.0609 79.5704 12.0609 79.7704 12.0509C79.9704 12.0409 80.1004 12.0409 80.1604 12.0409C81.0104 12.0409 81.6304 12.2509 82.0204 12.6809C82.4004 13.1109 82.6004 13.6209 82.6004 14.2109C82.6004 14.8809 82.3803 15.4709 81.9503 15.9709C81.5203 16.4709 80.9203 16.7209 80.1404 16.7209C79.7904 16.7209 79.3104 16.7109 78.6904 16.6809C78.7204 15.9709 78.7404 15.1609 78.7404 14.2609C78.7404 13.4009 78.7303 12.6609 78.7003 12.0609ZM76.4503 12.0609H77.4503C77.4203 12.6609 77.4004 13.3909 77.4004 14.2609C77.4004 15.1509 77.4203 15.9609 77.4503 16.6809H76.4503C76.4803 15.9509 76.5004 15.1409 76.5004 14.2609C76.5004 13.4009 76.4803 12.6609 76.4503 12.0609ZM71.6004 12.6709C72.0404 12.1909 72.5903 11.9509 73.2504 11.9509C73.8704 11.9509 74.4004 12.1709 74.8204 12.6109C75.2404 13.0509 75.4503 13.6109 75.4503 14.2809C75.4503 15.0109 75.2303 15.6109 74.7803 16.0909C74.3403 16.5709 73.7904 16.8109 73.1304 16.8109C72.5104 16.8109 71.9803 16.5909 71.5603 16.1509C71.1404 15.7109 70.9304 15.1509 70.9304 14.4809C70.9304 13.7509 71.1604 13.1409 71.6004 12.6709ZM61.7204 12.0609H62.3403C62.4403 12.0609 62.5904 12.0609 62.7904 12.0509C62.9904 12.0409 63.1204 12.0409 63.1804 12.0409C64.0304 12.0409 64.6504 12.2509 65.0404 12.6809C65.4204 13.1109 65.6204 13.6209 65.6204 14.2109C65.6204 14.8809 65.4004 15.4709 64.9704 15.9709C64.5404 16.4709 63.9404 16.7209 63.1604 16.7209C62.8104 16.7209 62.3304 16.7109 61.7104 16.6809C61.7404 15.9709 61.7604 15.1609 61.7604 14.2609C61.7704 13.4009 61.7504 12.6609 61.7204 12.0609ZM56.6804 12.0609H57.7303C57.7303 12.1909 58.0204 12.6909 58.6104 13.5609C59.2304 14.4909 59.5904 15.1209 59.6804 15.4509H59.7303C59.6703 14.9209 59.6404 14.4509 59.6404 14.0309C59.6404 13.3909 59.6203 12.7309 59.5903 12.0609H60.4803C60.4503 12.6509 60.4304 13.3809 60.4304 14.2609C60.4304 15.1509 60.4503 15.9509 60.4803 16.6809H59.6004C59.6004 16.5809 59.2704 16.0709 58.6204 15.1409C57.9404 14.1609 57.5504 13.5009 57.4604 13.1409H57.4004C57.4604 13.6609 57.4904 14.1309 57.4904 14.5409C57.4904 15.1209 57.5104 15.8409 57.5404 16.6809H56.6703C56.7104 15.9509 56.7204 15.1409 56.7204 14.2609C56.7304 13.4009 56.7104 12.6609 56.6804 12.0609ZM52.2404 14.4109C52.7904 12.9909 53.0704 12.2109 53.0704 12.0609H54.4104C54.4104 12.1909 54.6604 12.9709 55.1604 14.3709C55.6604 15.7809 55.9104 16.5509 55.9104 16.6709H54.7704C54.7704 16.5109 54.6603 16.0709 54.4503 15.3409H52.8103C52.5903 16.0609 52.4803 16.5009 52.4803 16.6709H51.4104C51.4104 16.5809 51.6904 15.8309 52.2404 14.4109ZM14.8304 12.7709C22.0104 16.7909 29.1904 20.8209 36.3704 24.8309C36.7004 25.0109 36.6904 25.1209 36.4404 25.3709C34.8304 26.9509 33.2404 28.5409 31.6504 30.1409C31.4804 30.3109 31.3703 30.4109 31.1404 30.1809C25.4304 24.3509 19.7104 18.5409 13.9904 12.7209C13.9404 12.6709 13.9003 12.6109 13.8103 12.4909C14.2403 12.4809 14.5404 12.6109 14.8304 12.7709ZM12.6204 48.2509C12.0204 47.7909 11.7904 47.1709 11.7904 46.4309C11.7904 43.3209 11.7903 40.2209 11.7803 37.1109C11.7803 34.9109 11.7803 32.7209 11.7803 30.5209H11.7904C11.7904 25.2809 11.7904 20.0309 11.7904 14.7909C11.7904 14.1509 11.9104 13.5609 12.3704 13.0709C12.5504 12.8809 12.6704 12.8309 12.8904 13.0509C16.4204 16.6509 19.9504 20.2409 23.4904 23.8309C25.7804 26.1609 28.0704 28.4809 30.3704 30.8009C30.5904 31.0209 30.6104 31.1409 30.3804 31.3809C24.7604 36.9709 19.1404 42.5709 13.5404 48.1809C13.1904 48.5409 12.9504 48.5009 12.6204 48.2509ZM35.7504 36.8609C29.0604 40.5209 22.3704 44.2009 15.6904 47.8709C15.5804 47.9309 15.4803 48.0309 15.4203 48.0709C20.6303 42.8009 25.8504 37.5409 31.0504 32.2609C31.3704 31.9309 31.5203 31.9809 31.8103 32.2809C33.1303 33.6609 34.4704 35.0109 35.8204 36.3609C36.0504 36.5909 36.0704 36.6809 35.7504 36.8609ZM44.4604 31.9909C44.1504 32.2209 43.8004 32.4109 43.4604 32.6009C41.4404 33.7209 39.4104 34.8309 37.3904 35.9509C37.1203 36.1009 36.9603 36.1009 36.7303 35.8609C35.2903 34.3809 33.8404 32.9009 32.3904 31.4409C32.1804 31.2309 32.1703 31.1109 32.3904 30.9009C34.0904 29.2309 35.7804 27.5409 37.4604 25.8509C37.6604 25.6509 37.8004 25.6309 38.0504 25.7709C40.0504 26.9009 42.0603 28.0209 44.0603 29.1409C44.6803 29.4909 45.1604 29.9409 45.1904 30.6709C45.1604 31.2709 44.8904 31.6809 44.4604 31.9909ZM65.6904 36.9509C64.1504 38.5709 62.1404 39.3809 59.6604 39.3809C57.2904 39.3809 55.2804 38.5609 53.6204 36.9209C51.9604 35.2809 51.1304 33.2409 51.1304 30.8109C51.1304 28.3809 51.9604 26.3409 53.6204 24.7009C55.2804 23.0609 57.2904 22.2409 59.6604 22.2409C60.8404 22.2409 61.9604 22.4709 63.0303 22.9309C64.1003 23.3909 64.9604 24.0009 65.6004 24.7609L64.1604 26.2009C63.0704 24.9009 61.5803 24.2509 59.6703 24.2509C57.9403 24.2509 56.4504 24.8609 55.1904 26.0709C53.9304 27.2809 53.3004 28.8609 53.3004 30.8009C53.3004 32.7409 53.9304 34.3209 55.1904 35.5309C56.4504 36.7409 57.9403 37.3509 59.6703 37.3509C61.5004 37.3509 63.0304 36.7409 64.2604 35.5209C65.0504 34.7309 65.5104 33.6209 65.6404 32.2009H59.6804V30.2409H67.6404C67.7204 30.6709 67.7504 31.0809 67.7504 31.4809C67.7304 33.7709 67.0504 35.5909 65.6904 36.9509ZM67.5804 14.8309C67.5804 15.4409 67.5904 16.0509 67.6104 16.6709H66.6204C66.6504 15.9609 66.6703 15.1509 66.6703 14.2509C66.6703 13.3909 66.6504 12.6509 66.6204 12.0509H67.2303C67.3003 12.0509 67.4504 12.0509 67.6804 12.0409C67.9104 12.0309 68.1104 12.0309 68.3103 12.0309C69.4003 12.0309 69.9404 12.4009 69.9404 13.1409C69.9404 13.7309 69.6304 14.1409 69.0104 14.3709V14.4209C69.2504 14.4909 69.4604 14.6709 69.6404 14.9809C69.8204 15.2909 70.0604 15.8509 70.3704 16.6609H69.3204C69.0504 15.8209 68.8404 15.3109 68.6904 15.1109C68.5404 14.9109 68.3103 14.8209 67.9803 14.8209C67.8403 14.8309 67.7104 14.8309 67.5804 14.8309ZM78.5204 37.6809C77.4304 38.8209 76.0504 39.3909 74.3704 39.3909C72.6904 39.3909 71.3103 38.8209 70.2204 37.6809C69.1304 36.5409 68.5903 35.1209 68.5903 33.4009C68.5903 31.6909 69.1304 30.2609 70.2204 29.1209C71.3004 27.9809 72.6904 27.4109 74.3704 27.4109C76.0504 27.4109 77.4304 27.9809 78.5204 29.1209C79.6004 30.2609 80.1504 31.6809 80.1504 33.4009C80.1504 35.1109 79.6104 36.5409 78.5204 37.6809ZM90.7903 37.6809C89.7003 38.8209 88.3204 39.3909 86.6404 39.3909C84.9604 39.3909 83.5804 38.8209 82.4904 37.6809C81.4004 36.5409 80.8604 35.1209 80.8604 33.4009C80.8604 31.6909 81.4004 30.2609 82.4904 29.1209C83.5704 27.9809 84.9604 27.4109 86.6404 27.4109C88.3204 27.4109 89.7003 27.9809 90.7903 29.1209C91.8703 30.2609 92.4203 31.6809 92.4203 33.4009C92.4203 35.1109 91.8703 36.5409 90.7903 37.6809ZM91.3803 14.9209C91.2703 14.9209 91.1904 14.9209 91.1404 14.9109C91.1404 15.3509 91.1504 15.9409 91.1804 16.6709H90.1804C90.2104 15.9909 90.2303 15.1809 90.2303 14.2509C90.2303 13.4009 90.2104 12.6609 90.1804 12.0509H90.8004C90.8904 12.0509 91.0604 12.0509 91.3004 12.0409C91.5504 12.0309 91.7603 12.0309 91.9503 12.0309C92.4003 12.0309 92.7804 12.1309 93.0904 12.3409C93.4004 12.5409 93.5504 12.8509 93.5504 13.2709C93.5504 13.8409 93.3403 14.2509 92.9203 14.5209C92.5103 14.7909 91.9903 14.9209 91.3803 14.9209ZM104.41 38.4409C104.41 40.3709 103.85 41.8309 102.74 42.8309C101.62 43.8309 100.26 44.3309 98.6603 44.3309C97.3303 44.3309 96.2504 44.0009 95.4004 43.3309C94.5604 42.6609 93.9604 41.9009 93.5904 41.0509L95.5204 40.2509C95.7304 40.8609 96.1303 41.3709 96.7003 41.7909C97.2703 42.2009 97.9303 42.4109 98.6603 42.4109C99.8203 42.4109 100.73 42.0609 101.4 41.3709C102.07 40.6709 102.4 39.7309 102.4 38.5409V37.4609H102.31C101.94 38.0109 101.42 38.4709 100.75 38.8409C100.08 39.2109 99.3203 39.3909 98.4803 39.3909C97.0303 39.3909 95.7704 38.8209 94.7204 37.6709C93.6704 36.5209 93.1404 35.1009 93.1404 33.4109C93.1404 31.7109 93.6704 30.2909 94.7204 29.1509C95.7704 28.0009 97.0303 27.4309 98.4803 27.4309C99.3203 27.4309 100.08 27.6109 100.75 27.9809C101.42 28.3509 101.94 28.8109 102.31 29.3609H102.4V27.8009H104.42V38.4409H104.41ZM104.1 16.0909C103.66 16.5709 103.11 16.8109 102.45 16.8109C101.83 16.8109 101.3 16.5909 100.88 16.1509C100.46 15.7109 100.25 15.1509 100.25 14.4809C100.25 13.7509 100.47 13.1509 100.92 12.6709C101.36 12.1909 101.91 11.9509 102.57 11.9509C103.19 11.9509 103.72 12.1709 104.14 12.6109C104.56 13.0509 104.77 13.6109 104.77 14.2809C104.77 15.0109 104.55 15.6109 104.1 16.0909ZM108.51 39.0209H106.4V22.6009H108.51V39.0209ZM109.58 16.6809H108.7C108.7 16.5809 108.37 16.0709 107.72 15.1409C107.04 14.1609 106.65 13.5009 106.56 13.1409H106.5C106.56 13.6609 106.59 14.1309 106.59 14.5409C106.59 15.1209 106.61 15.8409 106.64 16.6809H105.77C105.81 15.9509 105.82 15.1409 105.82 14.2609C105.82 13.4009 105.8 12.6609 105.77 12.0609H106.82C106.82 12.1909 107.11 12.6909 107.7 13.5609C108.32 14.4909 108.68 15.1209 108.77 15.4509H108.82C108.76 14.9209 108.73 14.4509 108.73 14.0309C108.73 13.3909 108.71 12.7309 108.68 12.0609H109.57C109.54 12.6509 109.52 13.3809 109.52 14.2609C109.53 15.1509 109.54 15.9509 109.58 16.6809ZM120.73 33.7909H111.86C111.92 34.9209 112.3 35.8209 112.99 36.4709C113.69 37.1309 114.5 37.4609 115.43 37.4609C116.94 37.4609 117.97 36.8209 118.5 35.5309L120.38 36.3109C120.01 37.1809 119.41 37.9109 118.57 38.5009C117.73 39.0909 116.7 39.3809 115.48 39.3809C113.78 39.3809 112.4 38.8109 111.34 37.6809C110.28 36.5509 109.75 35.1209 109.75 33.3909C109.75 31.7509 110.27 30.3509 111.3 29.1709C112.33 27.9909 113.65 27.4109 115.25 27.4109C116.92 27.4109 118.25 27.9509 119.25 29.0409C120.25 30.1209 120.75 31.5809 120.75 33.4009L120.73 33.7909ZM136.14 30.9809C135.12 31.9009 133.92 32.3709 132.53 32.3709H129.05V39.0209H126.94V22.6009H132.53C133.92 22.6009 135.12 23.0609 136.14 23.9909C137.16 24.9209 137.66 26.0809 137.66 27.4909C137.67 28.8909 137.16 30.0609 136.14 30.9809ZM141.15 39.0209H139.04V22.6009H141.15V39.0209ZM152.38 39.0209H150.36V37.4609H150.27C149.43 38.7409 148.2 39.3909 146.58 39.3909C145.39 39.3909 144.39 39.0509 143.59 38.3609C142.79 37.6709 142.39 36.7609 142.39 35.6309C142.39 34.4109 142.86 33.4509 143.81 32.7509C144.76 32.0509 145.93 31.7109 147.32 31.7109C148.56 31.7109 149.57 31.9409 150.37 32.4009V32.0809C150.37 31.2509 150.09 30.5909 149.52 30.1009C148.95 29.6009 148.26 29.3509 147.43 29.3509C146.82 29.3509 146.26 29.5009 145.77 29.7909C145.27 30.0809 144.93 30.4809 144.75 30.9809L142.82 30.1509C143.08 29.4809 143.59 28.8609 144.36 28.2809C145.12 27.7109 146.13 27.4209 147.39 27.4209C148.83 27.4209 150.02 27.8409 150.97 28.6809C151.92 29.5209 152.39 30.7109 152.39 32.2309V39.0209H152.38ZM156.97 43.9709H154.79L157.4 38.3109L152.77 27.7909H155.06L158.41 35.8609H158.46L161.71 27.7909H164L156.97 43.9709Z" fill="#D7C2FF"/>
</svg>
